# xmcd
#
# Track frame offsets:
#	150
#	18011
#	32054
#	44580
#	70610
#	87129
#	109275
#	123744
#	139065
#	159920
#	178832
#	195564
#	208958
#	217744
#
# Disc length: 3115 seconds
#
# Revision: 0
# Processed by: cddbd v1.5.1PL2 Copyright (c) Steve Scherf et al.
# Submitted via: dBpowerAMP V4.0
#
DISCID=c20c290e
DTITLE=GERRY ANDERSON - LOVE SONGS JUST FOR YOU
DYEAR=1900
DGENRE=Country
TTITLE0=HEALING HANDS
TTITLE1=THATS LIFE
TTITLE2=BAD BAD LEROY BROWN
TTITLE3=THE WIND BENEATH MY WINGS
TTITLE4=RUNAWAY
TTITLE5=YOU WILL BE MY MUSIC
TTITLE6=THE GREEN GREEN GRASS OF HOME
TTITLE7=MARY IN THE MORNING
TTITLE8=LOVE IS ALL
TTITLE9=WHEN YOUR OLD WEDDING WAS NEW
TTITLE10=UNCHAINED MELODY
TTITLE11=I WHO HAVE NOTHING
TTITLE12=I'M NOT RESPOSIBLE
TTITLE13=SOMEWHERE
EXTD=gerry anderson
EXTT0=
EXTT1=
EXTT2=
EXTT3=
EXTT4=
EXTT5=
EXTT6=
EXTT7=
EXTT8=
EXTT9=
EXTT10=
EXTT11=
EXTT12=
EXTT13=
PLAYORDER=
